<svg xmlns="http://www.w3.org/2000/svg" viewBox="0 0 1440 300" preserveAspectRatio="xMidYMid" width="100%" height="100%" style="shape-rendering:auto;display:block;background:none">
<g>
<path stroke-width="2" stroke-opacity="0.043478260869565216" stroke="#1ae5e0" fill="none" transform="translate(-360 0)" d="M0 150c240 0 480 0 720 0c240 0 480 0 720 0c240 0 480 0 720 0c240 0 480 0 720 0"/>
<path stroke-width="2" stroke-opacity="0.08695652173913043" stroke="#1fe5da" fill="none" transform="translate(-374.4 0)" d="M0 155.989c240 0 480 -11.9773 720 -11.9773c240 0 480 11.9773 720 11.9773c240 0 480 -11.9773 720 -11.9773c240 0 480 11.9773 720 11.9773"/>
<path stroke-width="2" stroke-opacity="0.13043478260869565" stroke="#32e4c4" fill="none" transform="translate(-388.8 0)" d="M0 161.91c240 0 480 -23.82 720 -23.82c240 0 480 23.82 720 23.82c240 0 480 -23.82 720 -23.82c240 0 480 23.82 720 23.82"/>
<path stroke-width="2" stroke-opacity="0.17391304347826086" stroke="#55e398" fill="none" transform="translate(-403.2 0)" d="M0 167.7c240 0 480 -35.4008 720 -35.4008c240 0 480 35.4008 720 35.4008c240 0 480 -35.4008 720 -35.4008c240 0 480 35.4008 720 35.4008"/>
<path stroke-width="2" stroke-opacity="0.21739130434782608" stroke="#82e162" fill="none" transform="translate(-417.6 0)" d="M0 173.303c240 0 480 -46.6062 720 -46.6062c240 0 480 46.6062 720 46.6062c240 0 480 -46.6062 720 -46.6062c240 0 480 46.6062 720 46.6062"/>
<path stroke-width="2" stroke-opacity="0.2608695652173913" stroke="#a4e039" fill="none" transform="translate(-432 0)" d="M0 178.67c240 0 480 -57.3405 720 -57.3405c240 0 480 57.3405 720 57.3405c240 0 480 -57.3405 720 -57.3405c240 0 480 57.3405 720 57.3405"/>
<path stroke-width="2" stroke-opacity="0.30434782608695654" stroke="#b5df25" fill="none" transform="translate(-446.4 0)" d="M0 183.764c240 0 480 -67.5286 720 -67.5286c240 0 480 67.5286 720 67.5286c240 0 480 -67.5286 720 -67.5286c240 0 480 67.5286 720 67.5286"/>
<path stroke-width="2" stroke-opacity="0.34782608695652173" stroke="#b9df20" fill="none" transform="translate(-460.8 0)" d="M0 188.558c240 0 480 -77.1156 720 -77.1156c240 0 480 77.1156 720 77.1156c240 0 480 -77.1156 720 -77.1156c240 0 480 77.1156 720 77.1156"/>
<path stroke-width="2" stroke-opacity="0.391304347826087" stroke="#b3da27" fill="none" transform="translate(-475.2 0)" d="M0 193.033c240 0 480 -86.0657 720 -86.0657c240 0 480 86.0657 720 86.0657c240 0 480 -86.0657 720 -86.0657c240 0 480 86.0657 720 86.0657"/>
<path stroke-width="2" stroke-opacity="0.43478260869565216" stroke="#a1cb3e" fill="none" transform="translate(-489.6 0)" d="M0 197.18c240 0 480 -94.3597 720 -94.3597c240 0 480 94.3597 720 94.3597c240 0 480 -94.3597 720 -94.3597c240 0 480 94.3597 720 94.3597"/>
<path stroke-width="2" stroke-opacity="0.4782608695652174" stroke="#7fb068" fill="none" transform="translate(-504 0)" d="M0 200.996c240 0 480 -101.992 720 -101.992c240 0 480 101.992 720 101.992c240 0 480 -101.992 720 -101.992c240 0 480 101.992 720 101.992"/>
<path stroke-width="2" stroke-opacity="0.5217391304347826" stroke="#558d9c" fill="none" transform="translate(-518.4 0)" d="M0 204.484c240 0 480 -108.968 720 -108.968c240 0 480 108.968 720 108.968c240 0 480 -108.968 720 -108.968c240 0 480 108.968 720 108.968"/>
<path stroke-width="2" stroke-opacity="0.5652173913043478" stroke="#3572c5" fill="none" transform="translate(-532.8 0)" d="M0 207.651c240 0 480 -115.301 720 -115.301c240 0 480 115.301 720 115.301c240 0 480 -115.301 720 -115.301c240 0 480 115.301 720 115.301"/>
<path stroke-width="2" stroke-opacity="0.6086956521739131" stroke="#2565d9" fill="none" transform="translate(-547.2 0)" d="M0 210.505c240 0 480 -121.01 720 -121.01c240 0 480 121.01 720 121.01c240 0 480 -121.01 720 -121.01c240 0 480 121.01 720 121.01"/>
<path stroke-width="2" stroke-opacity="0.6521739130434783" stroke="#2061df" fill="none" transform="translate(-561.6 0)" d="M0 213.059c240 0 480 -126.119 720 -126.119c240 0 480 126.119 720 126.119c240 0 480 -126.119 720 -126.119c240 0 480 126.119 720 126.119"/>
</g>
</svg>
